<?xml version="1.0" encoding="utf-8"?>
<!-- Generator: Adobe Illustrator 19.2.0, SVG Export Plug-In . SVG Version: 6.00 Build 0)  -->
<svg version="1.1" id="Calque_1" xmlns="http://www.w3.org/2000/svg" xmlns:xlink="http://www.w3.org/1999/xlink" x="0px" y="0px"
	 viewBox="0 0 220.7 181.9" style="enable-background:new 0 0 220.7 181.9;" xml:space="preserve">
<g>
	<g>
		<path d="M5.8,167.8l14.4,8.6V175l-12-7.2l12-7.2v-1.4L5.8,167.8z M22.7,176.4l14.4-8.6l-14.4-8.6V176.4z"/>
		<g>
			<path d="M204.1,137.2c0.4-2.1,1.6-3.5,3.6-3.5c2,0,3.2,1.4,3.5,3.5H204.1z M208.1,147.1c3,0,5.2-1.2,6.7-3.1l-2.7-2.4
				c-1.3,1.2-2.4,1.7-4,1.7c-2.1,0-3.6-1.1-4-3.2h11.5c0-0.4,0.1-0.9,0.1-1.2c0-4.7-2.5-9-8-9c-4.8,0-8.2,3.9-8.2,8.6v0.1
				C199.5,143.6,203.2,147.1,208.1,147.1 M181,146.7h4.7v-9.2c0-2.2,1.1-3.4,2.9-3.4c1.8,0,2.8,1.1,2.8,3.4v9.2h4.7V136
				c0-3.8-2.1-6.1-5.6-6.1c-2.4,0-3.8,1.3-4.8,2.7v-2.3H181V146.7z M161.7,146.7h4.7v-9.2c0-2.2,1.1-3.4,2.9-3.4
				c1.8,0,2.8,1.1,2.8,3.4v9.2h4.7V136c0-3.8-2.1-6.1-5.6-6.1c-2.4,0-3.8,1.3-4.8,2.7v-2.3h-4.7V146.7z M146.6,137.2
				c0.4-2.1,1.6-3.5,3.6-3.5c2,0,3.2,1.4,3.5,3.5H146.6z M150.6,147.1c3,0,5.2-1.2,6.8-3.1l-2.7-2.4c-1.3,1.2-2.4,1.7-4,1.7
				c-2.1,0-3.6-1.1-4-3.2h11.5c0-0.4,0.1-0.9,0.1-1.2c0-4.7-2.5-9-8-9c-4.8,0-8.2,3.9-8.2,8.6v0.1
				C142,143.6,145.7,147.1,150.6,147.1 M133.8,146.7h4.7v-16.5h-4.7V146.7z M133.7,128.4h4.9v-4.2h-4.9V128.4z M126.3,147
				c1.6,0,2.7-0.4,3.7-1v-3.8c-0.7,0.4-1.4,0.6-2.3,0.6c-1,0-1.5-0.5-1.5-1.6v-7.1h3.9v-4h-3.9V126h-4.7v4.2h-2v4h2v7.8
				C121.5,145.9,123.5,147,126.3,147 M100.6,146.7h16.4v-4.2h-11.7V138h10.2v-4.2h-10.2v-4.4h11.6v-4.2h-16.3V146.7z M86.3,139.4
				h9.5v-4.5h-9.5V139.4z M79.9,147c1.6,0,2.7-0.4,3.7-1v-3.8c-0.7,0.4-1.4,0.6-2.3,0.6c-1,0-1.5-0.5-1.5-1.6v-7.1h3.9v-4h-3.9V126
				H75v4.2h-2v4h2v7.8C75,145.9,77,147,79.9,147 M55.1,146.7h4.7v-9.2c0-2.2,1.1-3.4,2.9-3.4c1.8,0,2.8,1.1,2.8,3.4v9.2h4.7V136
				c0-3.8-2.1-6.1-5.6-6.1c-2.4,0-3.8,1.3-4.8,2.7v-2.3h-4.7V146.7z M46,146.7h4.7v-16.5H46V146.7z M45.9,128.4h4.9v-4.2h-4.9V128.4
				z M33.7,143.8c-1.5,0-2.6-0.7-2.6-2v-0.1c0-1.5,1.2-2.3,3.2-2.3c1.1,0,2.2,0.2,3,0.6v0.8C37.4,142.6,35.9,143.8,33.7,143.8
				 M32.3,147c2.3,0,3.9-0.8,5-2.1v1.8h4.5v-9.6c0-2.2-0.6-4-1.8-5.3c-1.2-1.2-3-1.8-5.6-1.8c-2.8,0-4.6,0.5-6.4,1.3l1.2,3.6
				c1.5-0.6,2.8-0.9,4.6-0.9c2.3,0,3.5,1.1,3.5,3v0.3c-1.2-0.4-2.4-0.7-4-0.7c-3.9,0-6.7,1.7-6.7,5.3v0.1
				C26.6,145.2,29.2,147,32.3,147 M16,147c4.7,0,7.9-2.4,7.9-6.7v-0.1c0-3.8-2.5-5.3-6.8-6.5c-3.7-1-4.7-1.4-4.7-2.8v-0.1
				c0-1,1-1.9,2.8-1.9c1.8,0,3.7,0.8,5.6,2.1l2.5-3.6c-2.2-1.8-4.9-2.7-8-2.7c-4.4,0-7.5,2.6-7.5,6.5v0.1c0,4.3,2.8,5.5,7.1,6.6
				c3.6,0.9,4.3,1.5,4.3,2.7v0.1c0,1.3-1.2,2-3.1,2c-2.5,0-4.5-1-6.4-2.6l-2.8,3.4C9.5,145.9,12.8,147,16,147"/>
			<path d="M133.7,117.5h4.7v-9.2c0-2.2,1.1-3.4,2.9-3.4c1.8,0,2.8,1.1,2.8,3.4v9.2h4.7v-10.7c0-3.8-2.1-6.1-5.6-6.1
				c-2.4,0-3.8,1.3-4.8,2.6v-2.3h-4.7V117.5z M120.7,112.2c-2.3,0-4-1.5-4-3.8v-0.1c0-2.2,1.7-3.8,4-3.8c2.3,0,4,1.6,4,3.8v0.1
				C124.8,110.6,123,112.2,120.7,112.2 M120.2,122.4c3.2,0,5.6-0.7,7.1-2.2c1.4-1.4,2.1-3.5,2.1-6.5v-12.8h-4.7v2.2
				c-1.3-1.4-2.8-2.5-5.3-2.5c-3.8,0-7.3,2.8-7.3,7.7v0.1c0,4.9,3.5,7.7,7.3,7.7c2.5,0,4-1,5.4-2.7v0.8c0,3-1.5,4.5-4.7,4.5
				c-2.2,0-3.9-0.6-5.6-1.5l-1.6,3.5C115,121.8,117.5,122.4,120.2,122.4 M103.9,117.5h4.7v-16.5h-4.7V117.5z M103.7,99.1h4.9V95
				h-4.9V99.1z M94,117.8c3.6,0,6.3-1.7,6.3-5.3v-0.1c0-3-2.7-4.1-5-4.9c-1.8-0.6-3.4-1-3.4-2v-0.1c0-0.6,0.6-1.1,1.7-1.1
				c1.2,0,2.8,0.6,4.5,1.5l1.8-3.2c-1.8-1.2-4.1-1.9-6.2-1.9c-3.3,0-6,1.9-6,5.2v0.1c0,3.2,2.6,4.3,4.9,5c1.8,0.6,3.4,0.9,3.4,1.9
				v0.1c0,0.7-0.6,1.2-2,1.2c-1.5,0-3.4-0.7-5.2-2l-2,3.1C89.1,117,91.7,117.8,94,117.8 M73.3,107.9c0.4-2.1,1.6-3.5,3.6-3.5
				c2,0,3.2,1.4,3.5,3.5H73.3z M77.3,117.8c3,0,5.2-1.2,6.7-3.1l-2.7-2.4c-1.3,1.2-2.4,1.7-4,1.7c-2.1,0-3.6-1.1-4-3.2h11.5
				c0-0.4,0.1-0.9,0.1-1.2c0-4.7-2.5-9-8-9c-4.8,0-8.2,3.9-8.2,8.6v0.1C68.7,114.3,72.3,117.8,77.3,117.8 M56.6,113.8
				c-2.2,0-4-1.8-4-4.6v-0.1c0-2.8,1.8-4.6,4-4.6c2.2,0,4,1.8,4,4.6v0.1C60.6,112,58.8,113.8,56.6,113.8 M55.4,117.8
				c2.4,0,4-1.1,5.1-2.7v2.4h4.7V95h-4.7v8.1c-1.1-1.3-2.6-2.5-5.1-2.5c-3.9,0-7.5,3-7.5,8.5v0.1C47.8,114.7,51.5,117.8,55.4,117.8
				 M32.1,117.7c1.6,0,2.7-0.4,3.7-1V113c-0.7,0.4-1.4,0.6-2.3,0.6c-1,0-1.5-0.5-1.5-1.6v-7.1h3.9v-4H32v-4.2h-4.7v4.2h-2v4h2v7.8
				C27.3,116.6,29.3,117.7,32.1,117.7 M11.7,107.9c0.4-2.1,1.6-3.5,3.6-3.5c2,0,3.2,1.4,3.5,3.5H11.7z M15.7,117.8
				c3,0,5.2-1.2,6.7-3.1l-2.7-2.4c-1.3,1.2-2.4,1.7-4,1.7c-2.1,0-3.6-1.1-4-3.2h11.5c0-0.4,0.1-0.9,0.1-1.2c0-4.7-2.5-9-8-9
				c-4.8,0-8.2,3.9-8.2,8.6v0.1C7.1,114.3,10.7,117.8,15.7,117.8"/>
			<path d="M74.3,88.5c1.6,0,2.7-0.4,3.7-1v-3.8c-0.7,0.4-1.4,0.6-2.3,0.6c-1,0-1.5-0.5-1.5-1.6v-7.1h3.9v-4h-3.9v-4.2h-4.7v4.2h-2
				v4h2v7.8C69.5,87.3,71.5,88.5,74.3,88.5 M55.6,88.2h4.7v-6.1c0-3.9,1.9-5.8,5-5.8h0.2v-4.9c-2.8-0.1-4.3,1.4-5.3,3.6v-3.3h-4.7
				V88.2z M43.3,85.2c-1.5,0-2.6-0.7-2.6-2v-0.1c0-1.5,1.2-2.3,3.2-2.3c1.1,0,2.2,0.2,3,0.6v0.8C47,84,45.5,85.2,43.3,85.2
				 M41.9,88.5c2.3,0,3.9-0.8,5-2.1v1.8h4.5v-9.6c0-2.2-0.6-4-1.8-5.3c-1.2-1.2-3-1.8-5.6-1.8c-2.8,0-4.6,0.5-6.4,1.3l1.2,3.6
				c1.5-0.6,2.8-0.9,4.6-0.9c2.3,0,3.5,1.1,3.5,3v0.3c-1.2-0.4-2.4-0.7-4-0.7c-3.9,0-6.7,1.7-6.7,5.3v0.1
				C36.2,86.7,38.8,88.5,41.9,88.5 M28.4,76.5c3.7-0.1,5.7-1.7,5.7-5.8v-4.2h-5v4.9H31c0.2,1.8-0.9,2.8-3,3L28.4,76.5z M15.9,84.5
				c-2.2,0-4-1.8-4-4.6v-0.1c0-2.8,1.8-4.6,4-4.6c2.2,0,4,1.8,4,4.6v0.1C19.9,82.7,18.1,84.5,15.9,84.5 M14.7,88.5
				c2.4,0,4-1.1,5.1-2.7v2.4h4.7V65.7h-4.7v8.1c-1.1-1.3-2.7-2.5-5.1-2.5c-3.9,0-7.5,3-7.5,8.5v0.1C7.1,85.5,10.8,88.5,14.7,88.5"/>
			<path d="M157.3,49.4c0.4-2.1,1.6-3.5,3.6-3.5c2,0,3.2,1.4,3.5,3.5H157.3z M161.4,59.3c3,0,5.2-1.2,6.7-3.1l-2.7-2.4
				c-1.3,1.2-2.4,1.7-4,1.7c-2.1,0-3.6-1.1-4-3.2h11.5c0-0.4,0.1-0.9,0.1-1.2c0-4.7-2.5-9-8-9c-4.8,0-8.2,3.9-8.2,8.6v0.1
				C152.7,55.8,156.4,59.3,161.4,59.3 M141,58.9h4.7v-6.1c0-3.9,1.9-5.8,5-5.8h0.2v-4.9c-2.8-0.1-4.3,1.4-5.3,3.6v-3.3H141V58.9z
				 M127.3,59.2c2.4,0,3.8-1.3,4.8-2.6v2.3h4.7V42.4h-4.7v9.2c0,2.2-1.1,3.4-2.9,3.4c-1.8,0-2.8-1.1-2.8-3.4v-9.2h-4.7v10.7
				C121.7,56.9,123.8,59.2,127.3,59.2 M106.9,49.4c0.4-2.1,1.6-3.5,3.6-3.5c2,0,3.2,1.4,3.5,3.5H106.9z M110.9,59.3
				c3,0,5.2-1.2,6.7-3.1l-2.7-2.4c-1.3,1.2-2.4,1.7-4,1.7c-2.1,0-3.6-1.1-4-3.2h11.5c0-0.4,0.1-0.9,0.1-1.2c0-4.7-2.5-9-8-9
				c-4.8,0-8.2,3.9-8.2,8.6v0.1C102.3,55.8,106,59.3,110.9,59.3 M94.3,58.9H99V42.4h-4.7V58.9z M94.2,40.6h4.9v-4.2h-4.9V40.6z
				 M81.8,58.9h4.7v-6.1c0-3.9,1.9-5.8,5-5.8h0.2v-4.9c-2.8-0.1-4.3,1.4-5.3,3.6v-3.3h-4.7V58.9z M68.5,40.6H72l4-3.7l-4-1.8
				L68.5,40.6z M66.8,49.4c0.4-2.1,1.6-3.5,3.6-3.5c2,0,3.2,1.4,3.5,3.5H66.8z M70.9,59.3c3,0,5.2-1.2,6.7-3.1l-2.7-2.4
				c-1.3,1.2-2.4,1.7-4,1.7c-2.1,0-3.6-1.1-4-3.2h11.5c0-0.4,0.1-0.9,0.1-1.2c0-4.7-2.5-9-8-9c-4.8,0-8.2,3.9-8.2,8.6v0.1
				C62.2,55.8,65.9,59.3,70.9,59.3 M51,55.2c-2.2,0-4-1.8-4-4.6v-0.1c0-2.7,1.8-4.6,4-4.6c2.2,0,4,1.8,4,4.6v0.1
				C55.1,53.4,53.2,55.2,51,55.2 M42.4,63.8h4.7v-7.1c1.1,1.3,2.7,2.5,5.1,2.5c3.9,0,7.5-3,7.5-8.5v-0.1c0-5.5-3.7-8.5-7.5-8.5
				c-2.4,0-4,1.1-5.1,2.7v-2.4h-4.7V63.8z M28.7,59.2c2.4,0,3.8-1.3,4.8-2.6v2.3h4.7V42.4h-4.7v9.2c0,2.2-1.1,3.4-2.9,3.4
				c-1.8,0-2.8-1.1-2.8-3.4v-9.2h-4.7v10.7C23.1,56.9,25.2,59.2,28.7,59.2 M13.7,59.2c3.6,0,6.3-1.7,6.3-5.3v-0.1c0-3-2.7-4.1-5-4.9
				c-1.8-0.6-3.4-1-3.4-2v-0.1c0-0.6,0.6-1.1,1.7-1.1c1.2,0,2.8,0.6,4.5,1.5l1.8-3.2c-1.8-1.2-4.1-1.9-6.2-1.9c-3.3,0-6,1.9-6,5.2
				v0.1c0,3.2,2.6,4.3,4.9,5c1.8,0.6,3.4,0.9,3.4,1.9v0.1c0,0.7-0.6,1.2-2,1.2c-1.5,0-3.4-0.7-5.2-2l-2,3.1
				C8.8,58.4,11.4,59.2,13.7,59.2"/>
			<path d="M78.8,20.1c0.4-2.1,1.6-3.5,3.6-3.5c2,0,3.2,1.4,3.5,3.5H78.8z M82.9,30c3,0,5.2-1.2,6.7-3.1l-2.7-2.4
				c-1.3,1.2-2.4,1.7-4,1.7c-2.1,0-3.6-1.1-4-3.2h11.5c0-0.4,0.1-0.9,0.1-1.2c0-4.7-2.5-9-8-9c-4.8,0-8.2,3.9-8.2,8.6v0.1
				C74.2,26.5,77.9,30,82.9,30 M66,29.6h4.7V7.1H66V29.6z M53.5,26c-2.6,0-4.3-2.1-4.3-4.6v-0.1c0-2.4,1.6-4.5,4.3-4.5
				c2.6,0,4.3,2.1,4.3,4.6v0.1C57.8,23.9,56.2,26,53.5,26 M53.4,30c5.1,0,9-3.9,9-8.6v-0.1c0-4.7-3.8-8.5-8.9-8.5
				c-5.1,0-9,3.9-9,8.6v0.1C44.5,26.2,48.3,30,53.4,30 M36.2,30c3.3,0,5.1-1.3,6.7-3l-2.7-2.8C39,25.3,37.9,26,36.4,26
				c-2.6,0-4.2-2-4.2-4.6v-0.1c0-2.4,1.7-4.5,4-4.5c1.7,0,2.7,0.7,3.8,1.8l2.9-3.1c-1.5-1.7-3.5-2.8-6.6-2.8c-5.1,0-8.7,3.9-8.7,8.6
				v0.1C27.6,26.2,31.2,30,36.2,30 M8.4,29.6h16.4v-4.2H13.1v-4.5h10.2v-4.2H13.1v-4.4h11.6V8.1H8.4V29.6z"/>
		</g>
	</g>
</g>
</svg>
